<svg width="512" height="512" viewBox="0 0 512 512" fill="none" xmlns="http://www.w3.org/2000/svg">
  <defs>
    <linearGradient id="shield" x1="64" y1="32" x2="448" y2="480" gradientUnits="userSpaceOnUse">
      <stop offset="0%" stop-color="#8083ff"/>
      <stop offset="100%" stop-color="#4f46e5"/>
    </linearGradient>
    <linearGradient id="inner" x1="160" y1="140" x2="352" y2="380" gradientUnits="userSpaceOnUse">
      <stop offset="0%" stop-color="#c0c1ff" stop-opacity="0.9"/>
      <stop offset="100%" stop-color="#6366F1" stop-opacity="0.7"/>
    </linearGradient>
    <linearGradient id="glass" x1="180" y1="170" x2="332" y2="340" gradientUnits="userSpaceOnUse">
      <stop offset="0%" stop-color="#ffffff" stop-opacity="0.3"/>
      <stop offset="100%" stop-color="#ffffff" stop-opacity="0.05"/>
    </linearGradient>
  </defs>
  <!-- Shield -->
  <path d="M256 28L72 120v152c0 112 78 210 184 240 106-30 184-128 184-240V120L256 28z" fill="url(#shield)"/>
  <path d="M256 52L92 134v138c0 100 70 190 164 218 94-28 164-118 164-218V134L256 52z" fill="url(#shield)" opacity="0.6"/>
  <!-- Browser windows (stacked layers) -->
  <!-- Back layer -->
  <rect x="148" y="200" width="216" height="160" rx="12" fill="url(#inner)" opacity="0.4"/>
  <!-- Middle layer -->
  <rect x="160" y="180" width="192" height="150" rx="10" fill="url(#inner)" opacity="0.7"/>
  <rect x="160" y="180" width="192" height="24" rx="10" fill="rgba(255,255,255,0.15)"/>
  <circle cx="178" cy="192" r="4" fill="white" opacity="0.6"/>
  <circle cx="192" cy="192" r="4" fill="white" opacity="0.4"/>
  <circle cx="206" cy="192" r="4" fill="white" opacity="0.3"/>
  <!-- Front layer -->
  <rect x="172" y="220" width="168" height="130" rx="8" fill="url(#inner)"/>
  <rect x="172" y="220" width="168" height="22" rx="8" fill="rgba(255,255,255,0.2)"/>
  <circle cx="188" cy="231" r="3.5" fill="white" opacity="0.7"/>
  <circle cx="200" cy="231" r="3.5" fill="white" opacity="0.5"/>
  <circle cx="212" cy="231" r="3.5" fill="white" opacity="0.3"/>
  <!-- Profile icon -->
  <circle cx="256" cy="280" r="18" fill="white" opacity="0.9"/>
  <circle cx="256" cy="274" r="7" fill="#6366F1"/>
  <path d="M244 290c0-6.6 5.4-10 12-10s12 3.4 12 10" fill="#6366F1" opacity="0.8"/>
  <!-- Glass reflection -->
  <path d="M256 52L92 134v40c80-20 200-40 328 0V134L256 52z" fill="url(#glass)"/>
</svg>
